<svg xmlns="http://www.w3.org/2000/svg" xmlns:xlink="http://www.w3.org/1999/xlink" width="300" zoomAndPan="magnify" viewBox="0 0 224.87999 60" height="80" preserveAspectRatio="xMidYMid meet" version="1.0"><defs><g/><clipPath id="e13fb563e7"><path d="M 7 35 L 53 35 L 53 56.890625 L 7 56.890625 Z M 7 35 " clip-rule="nonzero"/></clipPath><clipPath id="867f45a6aa"><path d="M 6.179688 14 L 43 14 L 43 42 L 6.179688 42 Z M 6.179688 14 " clip-rule="nonzero"/></clipPath><clipPath id="f095631856"><path d="M 6.179688 3.109375 L 52 3.109375 L 52 26 L 6.179688 26 Z M 6.179688 3.109375 " clip-rule="nonzero"/></clipPath><clipPath id="25fe449df4"><path d="M 16 17 L 53.402344 17 L 53.402344 45 L 16 45 Z M 16 17 " clip-rule="nonzero"/></clipPath></defs><g clip-path="url(#e13fb563e7)"><path fill="#003d60" d="M 7.761719 44 L 29.695312 56.878906 L 52.660156 43.4375 L 52.75 35.132812 L 29.328125 48.664062 L 14.667969 39.894531 Z M 7.761719 44 " fill-opacity="1" fill-rule="evenodd"/></g><g clip-path="url(#867f45a6aa)"><path fill="#fa776c" d="M 6.179688 41.757812 L 6.273438 28.132812 L 29.511719 14.878906 L 42.765625 22.347656 L 42.765625 25.984375 L 38.660156 28.042969 L 29.417969 23 L 13.550781 32.054688 L 13.550781 37.183594 Z M 6.179688 41.757812 " fill-opacity="1" fill-rule="evenodd"/></g><g clip-path="url(#f095631856)"><path fill="#ff6a0c" d="M 44.539062 19.730469 L 51.164062 15.53125 L 29.417969 3.121094 L 6.273438 16.652344 L 6.457031 25.054688 L 29.605469 11.425781 Z M 44.539062 19.730469 " fill-opacity="1" fill-rule="evenodd"/></g><g clip-path="url(#25fe449df4)"><path fill="#624cf5" d="M 16.632812 37.28125 L 16.351562 34.011719 L 20.550781 31.773438 L 29.320312 37 L 45.375 27.574219 L 45.84375 21.972656 L 53.03125 17.957031 L 52.566406 31.957031 L 29.980469 44.839844 Z M 16.632812 37.28125 " fill-opacity="1" fill-rule="evenodd"/></g><g fill="#000000" fill-opacity="1"><g transform="translate(58.877594, 42.814942)"><g><path d="M 1.777344 -0.667969 L 2.039062 -0.40625 L 7.449219 -0.816406 L 10.042969 -0.628906 L 10.449219 -0.816406 L 10.710938 -1.039062 L 10.265625 -5.1875 L 9.96875 -6.558594 L 9.96875 -9.003906 L 11.597656 -9.003906 L 12.191406 -9.078125 L 14.304688 -9.152344 L 15.898438 -9.5625 L 16.75 -9.855469 L 17.75 -10.414062 L 18.972656 -11.820312 L 20.046875 -13.933594 L 20.640625 -16.492188 L 20.640625 -19.640625 L 20.457031 -20.457031 L 20.085938 -21.121094 L 19.046875 -22.199219 L 17.714844 -23.085938 L 15.265625 -23.976562 L 11.820312 -24.644531 L 8.226562 -24.976562 L 7.449219 -25.125 L 3.296875 -25.125 L 1.777344 -24.753906 L 1.554688 -24.496094 L 1.554688 -24.125 L 1.628906 -23.9375 L 1.113281 -8.410156 Z M 8.96875 -15.453125 L 8.96875 -19.601562 L 10.820312 -19.601562 L 12.191406 -19.34375 L 12.933594 -18.824219 L 13.117188 -18.230469 L 13.117188 -17.378906 L 12.96875 -16.640625 L 12.15625 -15.824219 L 10.96875 -15.453125 Z M 8.96875 -15.453125 "/></g></g></g><g fill="#000000" fill-opacity="1"><g transform="translate(80.629873, 42.814942)"><g><path d="M 4.335938 -0.148438 L 6.226562 0 L 9.855469 -0.519531 L 10.5625 -0.371094 L 14.527344 -0.257812 L 16.898438 -0.371094 L 18.15625 -0.703125 L 18.492188 -1.074219 L 18.34375 -9.003906 L 18.230469 -9.339844 L 17.898438 -9.488281 L 10.523438 -9.671875 L 10.523438 -22.605469 L 10.894531 -25.234375 L 10.523438 -25.605469 L 8.894531 -25.867188 L 6.410156 -25.605469 L 4.152344 -25.605469 L 1.964844 -25.941406 L 1.777344 -25.605469 L 1.113281 -14.191406 L 1.113281 -1.851562 L 1.222656 -0.519531 L 1.667969 -0.296875 L 3.667969 -0.222656 Z M 4.335938 -0.148438 "/></g></g></g><g fill="#000000" fill-opacity="1"><g transform="translate(99.491737, 42.814942)"><g><path d="M 25.457031 -0.109375 L 25.53125 -1.113281 L 19.011719 -25.792969 L 15.636719 -25.941406 L 9.710938 -25.828125 L 0.742188 -1.1875 L 0.519531 -0.925781 L 0.371094 -0.667969 L 0.667969 -0.332031 L 9.191406 -0.332031 L 9.265625 -1.113281 L 11.191406 -7.226562 L 16.046875 -7.226562 L 16.304688 -0.925781 L 16.453125 -0.554688 L 16.824219 -0.332031 Z M 12.265625 -13.675781 L 14.304688 -19.898438 L 14.972656 -17.675781 L 15.527344 -13.859375 L 13.824219 -13.75 L 13.488281 -13.675781 Z M 12.265625 -13.675781 "/></g></g></g><g fill="#000000" fill-opacity="1"><g transform="translate(125.39437, 42.814942)"><g><path d="M 6.855469 -0.0742188 L 9.597656 -0.0742188 L 9.78125 -0.296875 L 10.523438 -14.304688 L 11.5625 -10.859375 L 13.265625 -6.671875 L 16.453125 -0.742188 L 16.75 -0.445312 L 17.34375 -0.445312 L 17.789062 -0.703125 L 19.160156 -1.039062 L 23.640625 -1.148438 L 25.160156 -1.40625 L 26.125 -1.40625 L 26.421875 -1.554688 L 27.125 -8.78125 L 27.273438 -16.710938 L 27.644531 -18.824219 L 28.125 -24.347656 L 28.347656 -24.679688 L 28.347656 -25.011719 L 28.050781 -25.308594 L 26.050781 -25.308594 L 23.640625 -25.050781 L 21.011719 -25.050781 L 19.789062 -25.199219 L 19.269531 -25.050781 L 19.121094 -24.644531 L 18.824219 -19.789062 L 18.824219 -14.304688 L 18.675781 -14.414062 L 15.933594 -19.640625 L 15.121094 -20.863281 L 13.527344 -23.9375 L 12.933594 -24.902344 L 7.707031 -25.050781 L 6.820312 -25.160156 L 3.519531 -25.160156 L 2.113281 -24.828125 L 1.890625 -24.347656 L 1.890625 -13.859375 L 1.113281 -2.445312 L 1.113281 -1.335938 L 1.371094 -0.703125 L 1.742188 -0.554688 L 4.78125 -0.554688 Z M 6.855469 -0.0742188 "/></g></g></g><g fill="#000000" fill-opacity="1"><g transform="translate(154.854454, 42.814942)"><g><path d="M 2.371094 0.148438 L 9.226562 0.148438 L 9.414062 -0.183594 L 11.152344 -22.753906 L 11.152344 -25.011719 L 10.597656 -25.273438 L 3.335938 -25.570312 L 3.074219 -23.9375 L 2.707031 -22.382812 L 2.113281 -18.15625 L 1.113281 -4.929688 L 1.113281 0 Z M 2.371094 0.148438 "/></g></g></g><g fill="#000000" fill-opacity="1"><g transform="translate(167.120218, 42.814942)"><g><path d="M 1.703125 0.257812 L 1.925781 0.480469 L 2.742188 0.480469 L 3.148438 0.40625 L 6.078125 0.332031 L 6.820312 0.222656 L 11.449219 0.0742188 L 11.785156 -0.257812 L 11.785156 -1.074219 L 11.375 -2.59375 L 10.785156 -6.226562 L 10.785156 -6.964844 L 13.117188 -7.039062 L 14.527344 -7.226562 L 14.898438 -7.335938 L 15.265625 -7.707031 L 15.265625 -12.746094 L 15.195312 -13.304688 L 14.527344 -13.601562 L 11.300781 -13.601562 L 10.785156 -13.488281 L 10.5625 -17.417969 L 19.34375 -17.640625 L 19.898438 -17.75 L 20.046875 -22.125 L 19.9375 -25.941406 L 1.371094 -25.828125 L 1.261719 -23.9375 L 1.113281 -22.976562 L 1.113281 -7.929688 Z M 1.703125 0.257812 "/></g></g></g><g fill="#000000" fill-opacity="1"><g transform="translate(188.279593, 42.814942)"><g><path d="M 7.039062 -0.109375 L 7.410156 0 L 15.824219 -0.519531 L 16.15625 -0.59375 L 16.378906 -1.039062 L 16.378906 -7.410156 L 16.566406 -8.078125 L 16.898438 -12.746094 L 16.898438 -13.230469 L 17.378906 -13.601562 L 19.9375 -16.527344 L 27.71875 -24.347656 L 27.867188 -24.605469 L 28.199219 -24.941406 L 28.199219 -25.347656 L 27.867188 -25.644531 L 25.234375 -25.644531 L 24.679688 -25.53125 L 16.007812 -25.382812 L 15.5625 -25.199219 L 12.894531 -20.011719 L 12.710938 -20.160156 L 11.671875 -22.753906 L 11.007812 -25.085938 L 10.597656 -25.679688 L 10.191406 -25.902344 L 6.003906 -25.902344 L 0.554688 -25.421875 L 0.371094 -25.273438 L 1.261719 -23.714844 L 8.226562 -14.117188 L 7.261719 -6.707031 L 6.894531 -0.519531 Z M 7.039062 -0.109375 "/></g></g></g></svg>